<?xml version="1.0" standalone="no"?>
<!DOCTYPE svg PUBLIC "-//W3C//DTD SVG 20010904//EN"
 "http://www.w3.org/TR/2001/REC-SVG-20010904/DTD/svg10.dtd">
<svg version="1.0" xmlns="http://www.w3.org/2000/svg"
 width="700.000000pt" height="656.000000pt" viewBox="0 0 700.000000 656.000000"
 preserveAspectRatio="xMidYMid meet">
<metadata>
Created by potrace 1.16, written by Peter Selinger 2001-2019
</metadata>
<g transform="translate(0.000000,656.000000) scale(0.100000,-0.100000)"
fill="#000000" stroke="none">
<path d="M3251 6459 c-183 -36 -373 -152 -476 -291 -39 -53 -340 -569 -1037
-1778 -55 -96 -193 -335 -306 -530 -1029 -1782 -1329 -2304 -1353 -2356 -48
-105 -62 -177 -63 -314 0 -147 16 -224 74 -346 117 -244 347 -409 620 -443 55
-7 467 -11 1177 -11 l1093 0 0 750 0 750 380 0 380 0 0 -750 0 -750 540 0 540
0 0 1097 0 1097 70 -69 70 -69 0 -1029 0 -1028 578 4 c518 3 584 5 642 21 239
67 430 225 530 439 94 200 95 464 1 662 -15 33 -180 323 -366 645 -186 322
-564 977 -840 1455 -652 1129 -1168 2023 -1331 2304 -94 164 -146 242 -193
294 -118 126 -260 208 -423 241 -82 17 -234 19 -307 5z m249 -3439 c76 -39
120 -113 120 -200 0 -126 -96 -224 -220 -224 -177 -1 -285 187 -195 340 59
101 189 138 295 84z"/>
<path d="M3134 1721 c-2 -2 -4 -139 -4 -303 l0 -298 230 0 230 0 0 300 c0 233
-3 300 -12 300 -7 0 -109 1 -226 3 -118 1 -216 0 -218 -2z m436 -301 l0 -290
-210 0 -210 0 0 290 0 290 210 0 210 0 0 -290z"/>
<path d="M3175 1678 c-3 -8 -4 -128 -3 -268 l3 -255 185 0 185 0 0 265 0 265
-183 3 c-142 2 -184 0 -187 -10z m345 -258 l0 -240 -160 0 -160 0 0 240 0 240
160 0 160 0 0 -240z"/>
<path d="M3130 780 l0 -230 230 0 230 0 0 230 0 230 -230 0 -230 0 0 -230z
m440 0 l0 -210 -210 0 -210 0 0 210 0 210 210 0 210 0 0 -210z"/>
<path d="M3170 780 l0 -190 190 0 190 0 0 190 0 190 -190 0 -190 0 0 -190z
m350 0 l0 -160 -160 0 -160 0 0 160 0 160 160 0 160 0 0 -160z"/>
</g>
</svg>
